<svg xmlns="http://www.w3.org/2000/svg" viewBox="0 0 520 340" width="520" height="340" font-family="Inter, Helvetica, Arial, sans-serif" role="img"><title>Gráficas de f(x)=5−x² y g(x)=4/x², que se cortan en (±1,4) y (±2,1)</title><defs><marker id="f" viewBox="0 0 10 10" refX="9" refY="5" markerWidth="7" markerHeight="7" orient="auto"><path d="M0,0 L10,5 L0,10 z" fill="#1A1A1A"/></marker></defs><rect x="1.5" y="1.5" width="517" height="337" fill="#EBF8EE" stroke="#1A1A1A" stroke-width="3"/><line x1="28.0" y1="248.9" x2="492.0" y2="248.9" stroke="#1A1A1A" stroke-width="1.5" marker-end="url(#f)"/><line x1="260.0" y1="312.0" x2="260.0" y2="28.0" stroke="#1A1A1A" stroke-width="1.5" marker-end="url(#f)"/><line x1="115.0" y1="244.9" x2="115.0" y2="252.9" stroke="#1A1A1A"/><text x="115.0" y="266.9" text-anchor="middle" font-size="14" fill="#1A1A1A">−2</text><line x1="187.5" y1="244.9" x2="187.5" y2="252.9" stroke="#1A1A1A"/><text x="187.5" y="266.9" text-anchor="middle" font-size="14" fill="#1A1A1A">−1</text><line x1="332.5" y1="244.9" x2="332.5" y2="252.9" stroke="#1A1A1A"/><text x="332.5" y="266.9" text-anchor="middle" font-size="14" fill="#1A1A1A">1</text><line x1="405.0" y1="244.9" x2="405.0" y2="252.9" stroke="#1A1A1A"/><text x="405.0" y="266.9" text-anchor="middle" font-size="14" fill="#1A1A1A">2</text><line x1="256.0" y1="217.3" x2="264.0" y2="217.3" stroke="#1A1A1A"/><text x="250.0" y="221.3" text-anchor="end" font-size="14" fill="#1A1A1A">1</text><line x1="256.0" y1="122.7" x2="264.0" y2="122.7" stroke="#1A1A1A"/><text x="250.0" y="126.7" text-anchor="end" font-size="14" fill="#1A1A1A">4</text><line x1="256.0" y1="91.1" x2="264.0" y2="91.1" stroke="#1A1A1A"/><text x="250.0" y="95.1" text-anchor="end" font-size="14" fill="#1A1A1A">5</text><path d="M68.2,311.9 L69.0,310.2 L69.7,308.5 L70.5,306.8 L71.2,305.1 L72.0,303.4 L72.7,301.7 L73.5,300.0 L74.2,298.3 L75.0,296.7 L75.7,295.0 L76.5,293.4 L77.2,291.7 L78.0,290.1 L78.7,288.4 L79.5,286.8 L80.2,285.2 L80.9,283.6 L81.7,282.0 L82.4,280.4 L83.2,278.8 L83.9,277.2 L84.7,275.6 L85.4,274.0 L86.2,272.5 L86.9,270.9 L87.7,269.4 L88.4,267.8 L89.2,266.3 L89.9,264.7 L90.7,263.2 L91.4,261.7 L92.2,260.2 L92.9,258.7 L93.7,257.2 L94.4,255.7 L95.2,254.2 L95.9,252.7 L96.7,251.2 L97.4,249.8 L98.2,248.3 L98.9,246.9 L99.7,245.4 L100.4,244.0 L101.2,242.5 L101.9,241.1 L102.7,239.7 L103.4,238.3 L104.2,236.9 L104.9,235.5 L105.7,234.1 L106.4,232.7 L107.2,231.3 L107.9,230.0 L108.7,228.6 L109.4,227.2 L110.2,225.9 L110.9,224.5 L111.7,223.2 L112.4,221.9 L113.2,220.6 L113.9,219.2 L114.7,217.9 L115.4,216.6 L116.2,215.3 L116.9,214.0 L117.7,212.7 L118.4,211.5 L119.2,210.2 L119.9,208.9 L120.7,207.7 L121.4,206.4 L122.2,205.2 L122.9,204.0 L123.7,202.7 L124.4,201.5 L125.2,200.3 L125.9,199.1 L126.6,197.9 L127.4,196.7 L128.1,195.5 L128.9,194.3 L129.6,193.1 L130.4,192.0 L131.1,190.8 L131.9,189.6 L132.6,188.5 L133.4,187.3 L134.1,186.2 L134.9,185.1 L135.6,184.0 L136.4,182.8 L137.1,181.7 L137.9,180.6 L138.6,179.5 L139.4,178.5 L140.1,177.4 L140.9,176.3 L141.6,175.2 L142.4,174.2 L143.1,173.1 L143.9,172.1 L144.6,171.0 L145.4,170.0 L146.1,169.0 L146.9,167.9 L147.6,166.9 L148.4,165.9 L149.1,164.9 L149.9,163.9 L150.6,162.9 L151.4,162.0 L152.1,161.0 L152.9,160.0 L153.6,159.1 L154.4,158.1 L155.1,157.2 L155.9,156.2 L156.6,155.3 L157.4,154.4 L158.1,153.4 L158.9,152.5 L159.6,151.6 L160.4,150.7 L161.1,149.8 L161.9,148.9 L162.6,148.1 L163.4,147.2 L164.1,146.3 L164.9,145.5 L165.6,144.6 L166.4,143.8 L167.1,142.9 L167.9,142.1 L168.6,141.3 L169.4,140.4 L170.1,139.6 L170.8,138.8 L171.6,138.0 L172.3,137.2 L173.1,136.5 L173.8,135.7 L174.6,134.9 L175.3,134.1 L176.1,133.4 L176.8,132.6 L177.6,131.9 L178.3,131.1 L179.1,130.4 L179.8,129.7 L180.6,129.0 L181.3,128.3 L182.1,127.6 L182.8,126.9 L183.6,126.2 L184.3,125.5 L185.1,124.8 L185.8,124.1 L186.6,123.5 L187.3,122.8 L188.1,122.2 L188.8,121.5 L189.6,120.9 L190.3,120.3 L191.1,119.6 L191.8,119.0 L192.6,118.4 L193.3,117.8 L194.1,117.2 L194.8,116.6 L195.6,116.0 L196.3,115.5 L197.1,114.9 L197.8,114.3 L198.6,113.8 L199.3,113.2 L200.1,112.7 L200.8,112.1 L201.6,111.6 L202.3,111.1 L203.1,110.6 L203.8,110.1 L204.6,109.6 L205.3,109.1 L206.1,108.6 L206.8,108.1 L207.6,107.6 L208.3,107.2 L209.1,106.7 L209.8,106.2 L210.6,105.8 L211.3,105.3 L212.1,104.9 L212.8,104.5 L213.6,104.1 L214.3,103.6 L215.1,103.2 L215.8,102.8 L216.5,102.4 L217.3,102.1 L218.0,101.7 L218.8,101.3 L219.5,100.9 L220.3,100.6 L221.0,100.2 L221.8,99.9 L222.5,99.5 L223.3,99.2 L224.0,98.9 L224.8,98.6 L225.5,98.2 L226.3,97.9 L227.0,97.6 L227.8,97.3 L228.5,97.1 L229.3,96.8 L230.0,96.5 L230.8,96.2 L231.5,96.0 L232.3,95.7 L233.0,95.5 L233.8,95.2 L234.5,95.0 L235.3,94.8 L236.0,94.6 L236.8,94.3 L237.5,94.1 L238.3,93.9 L239.0,93.8 L239.8,93.6 L240.5,93.4 L241.3,93.2 L242.0,93.1 L242.8,92.9 L243.5,92.7 L244.3,92.6 L245.0,92.5 L245.8,92.3 L246.5,92.2 L247.3,92.1 L248.0,92.0 L248.8,91.9 L249.5,91.8 L250.3,91.7 L251.0,91.6 L251.8,91.5 L252.5,91.4 L253.3,91.4 L254.0,91.3 L254.8,91.3 L255.5,91.2 L256.3,91.2 L257.0,91.2 L257.8,91.1 L258.5,91.1 L259.3,91.1 L260.0,91.1 L260.7,91.1 L261.5,91.1 L262.2,91.1 L263.0,91.2 L263.7,91.2 L264.5,91.2 L265.2,91.3 L266.0,91.3 L266.7,91.4 L267.5,91.4 L268.2,91.5 L269.0,91.6 L269.7,91.7 L270.5,91.8 L271.2,91.9 L272.0,92.0 L272.7,92.1 L273.5,92.2 L274.2,92.3 L275.0,92.5 L275.7,92.6 L276.5,92.7 L277.2,92.9 L278.0,93.1 L278.7,93.2 L279.5,93.4 L280.2,93.6 L281.0,93.8 L281.7,93.9 L282.5,94.1 L283.2,94.3 L284.0,94.6 L284.7,94.8 L285.5,95.0 L286.2,95.2 L287.0,95.5 L287.7,95.7 L288.5,96.0 L289.2,96.2 L290.0,96.5 L290.7,96.8 L291.5,97.1 L292.2,97.3 L293.0,97.6 L293.7,97.9 L294.5,98.2 L295.2,98.6 L296.0,98.9 L296.7,99.2 L297.5,99.5 L298.2,99.9 L299.0,100.2 L299.7,100.6 L300.5,100.9 L301.2,101.3 L302.0,101.7 L302.7,102.1 L303.5,102.4 L304.2,102.8 L305.0,103.2 L305.7,103.6 L306.4,104.1 L307.2,104.5 L307.9,104.9 L308.7,105.3 L309.4,105.8 L310.2,106.2 L310.9,106.7 L311.7,107.2 L312.4,107.6 L313.2,108.1 L313.9,108.6 L314.7,109.1 L315.4,109.6 L316.2,110.1 L316.9,110.6 L317.7,111.1 L318.4,111.6 L319.2,112.1 L319.9,112.7 L320.7,113.2 L321.4,113.8 L322.2,114.3 L322.9,114.9 L323.7,115.5 L324.4,116.0 L325.2,116.6 L325.9,117.2 L326.7,117.8 L327.4,118.4 L328.2,119.0 L328.9,119.6 L329.7,120.3 L330.4,120.9 L331.2,121.5 L331.9,122.2 L332.7,122.8 L333.4,123.5 L334.2,124.1 L334.9,124.8 L335.7,125.5 L336.4,126.2 L337.2,126.9 L337.9,127.6 L338.7,128.3 L339.4,129.0 L340.2,129.7 L340.9,130.4 L341.7,131.1 L342.4,131.9 L343.2,132.6 L343.9,133.4 L344.7,134.1 L345.4,134.9 L346.2,135.7 L346.9,136.5 L347.7,137.2 L348.4,138.0 L349.2,138.8 L349.9,139.6 L350.6,140.4 L351.4,141.3 L352.1,142.1 L352.9,142.9 L353.6,143.8 L354.4,144.6 L355.1,145.5 L355.9,146.3 L356.6,147.2 L357.4,148.1 L358.1,148.9 L358.9,149.8 L359.6,150.7 L360.4,151.6 L361.1,152.5 L361.9,153.4 L362.6,154.4 L363.4,155.3 L364.1,156.2 L364.9,157.2 L365.6,158.1 L366.4,159.1 L367.1,160.0 L367.9,161.0 L368.6,162.0 L369.4,162.9 L370.1,163.9 L370.9,164.9 L371.6,165.9 L372.4,166.9 L373.1,167.9 L373.9,169.0 L374.6,170.0 L375.4,171.0 L376.1,172.1 L376.9,173.1 L377.6,174.2 L378.4,175.2 L379.1,176.3 L379.9,177.4 L380.6,178.5 L381.4,179.5 L382.1,180.6 L382.9,181.7 L383.6,182.8 L384.4,184.0 L385.1,185.1 L385.9,186.2 L386.6,187.3 L387.4,188.5 L388.1,189.6 L388.9,190.8 L389.6,192.0 L390.4,193.1 L391.1,194.3 L391.9,195.5 L392.6,196.7 L393.4,197.9 L394.1,199.1 L394.9,200.3 L395.6,201.5 L396.3,202.7 L397.1,204.0 L397.8,205.2 L398.6,206.4 L399.3,207.7 L400.1,208.9 L400.8,210.2 L401.6,211.5 L402.3,212.7 L403.1,214.0 L403.8,215.3 L404.6,216.6 L405.3,217.9 L406.1,219.2 L406.8,220.6 L407.6,221.9 L408.3,223.2 L409.1,224.5 L409.8,225.9 L410.6,227.2 L411.3,228.6 L412.1,230.0 L412.8,231.3 L413.6,232.7 L414.3,234.1 L415.1,235.5 L415.8,236.9 L416.6,238.3 L417.3,239.7 L418.1,241.1 L418.8,242.5 L419.6,244.0 L420.3,245.4 L421.1,246.9 L421.8,248.3 L422.6,249.8 L423.3,251.2 L424.1,252.7 L424.8,254.2 L425.6,255.7 L426.3,257.2 L427.1,258.7 L427.8,260.2 L428.6,261.7 L429.3,263.2 L430.1,264.7 L430.8,266.3 L431.6,267.8 L432.3,269.4 L433.1,270.9 L433.8,272.5 L434.6,274.0 L435.3,275.6 L436.1,277.2 L436.8,278.8 L437.6,280.4 L438.3,282.0 L439.1,283.6 L439.8,285.2 L440.5,286.8 L441.3,288.4 L442.0,290.1 L442.8,291.7 L443.5,293.4 L444.3,295.0 L445.0,296.7 L445.8,298.3 L446.5,300.0 L447.3,301.7 L448.0,303.4 L448.8,305.1 L449.5,306.8 L450.3,308.5 L451.0,310.2 L451.8,311.9" fill="none" stroke="#262A3D" stroke-width="3"/><path d="M28.0,236.6 L28.3,236.5 L28.6,236.5 L29.0,236.5 L29.3,236.4 L29.6,236.4 L29.9,236.4 L30.2,236.3 L30.6,236.3 L30.9,236.3 L31.2,236.2 L31.5,236.2 L31.8,236.1 L32.2,236.1 L32.5,236.1 L32.8,236.0 L33.1,236.0 L33.4,236.0 L33.8,235.9 L34.1,235.9 L34.4,235.9 L34.7,235.8 L35.0,235.8 L35.4,235.7 L35.7,235.7 L36.0,235.7 L36.3,235.6 L36.6,235.6 L37.0,235.6 L37.3,235.5 L37.6,235.5 L37.9,235.4 L38.2,235.4 L38.6,235.4 L38.9,235.3 L39.2,235.3 L39.5,235.2 L39.8,235.2 L40.2,235.2 L40.5,235.1 L40.8,235.1 L41.1,235.0 L41.4,235.0 L41.8,235.0 L42.1,234.9 L42.4,234.9 L42.7,234.8 L43.0,234.8 L43.4,234.8 L43.7,234.7 L44.0,234.7 L44.3,234.6 L44.7,234.6 L45.0,234.5 L45.3,234.5 L45.6,234.5 L45.9,234.4 L46.3,234.4 L46.6,234.3 L46.9,234.3 L47.2,234.2 L47.5,234.2 L47.9,234.1 L48.2,234.1 L48.5,234.1 L48.8,234.0 L49.1,234.0 L49.5,233.9 L49.8,233.9 L50.1,233.8 L50.4,233.8 L50.7,233.7 L51.1,233.7 L51.4,233.6 L51.7,233.6 L52.0,233.6 L52.3,233.5 L52.7,233.5 L53.0,233.4 L53.3,233.4 L53.6,233.3 L53.9,233.3 L54.3,233.2 L54.6,233.2 L54.9,233.1 L55.2,233.1 L55.5,233.0 L55.9,233.0 L56.2,232.9 L56.5,232.9 L56.8,232.8 L57.1,232.8 L57.5,232.7 L57.8,232.7 L58.1,232.6 L58.4,232.6 L58.7,232.5 L59.1,232.5 L59.4,232.4 L59.7,232.4 L60.0,232.3 L60.3,232.2 L60.7,232.2 L61.0,232.1 L61.3,232.1 L61.6,232.0 L61.9,232.0 L62.3,231.9 L62.6,231.9 L62.9,231.8 L63.2,231.8 L63.5,231.7 L63.9,231.6 L64.2,231.6 L64.5,231.5 L64.8,231.5 L65.1,231.4 L65.5,231.4 L65.8,231.3 L66.1,231.2 L66.4,231.2 L66.7,231.1 L67.1,231.1 L67.4,231.0 L67.7,230.9 L68.0,230.9 L68.3,230.8 L68.7,230.8 L69.0,230.7 L69.3,230.6 L69.6,230.6 L69.9,230.5 L70.3,230.5 L70.6,230.4 L70.9,230.3 L71.2,230.3 L71.5,230.2 L71.9,230.1 L72.2,230.1 L72.5,230.0 L72.8,230.0 L73.1,229.9 L73.5,229.8 L73.8,229.8 L74.1,229.7 L74.4,229.6 L74.8,229.6 L75.1,229.5 L75.4,229.4 L75.7,229.4 L76.0,229.3 L76.4,229.2 L76.7,229.1 L77.0,229.1 L77.3,229.0 L77.6,228.9 L78.0,228.9 L78.3,228.8 L78.6,228.7 L78.9,228.7 L79.2,228.6 L79.6,228.5 L79.9,228.4 L80.2,228.4 L80.5,228.3 L80.8,228.2 L81.2,228.1 L81.5,228.1 L81.8,228.0 L82.1,227.9 L82.4,227.8 L82.8,227.8 L83.1,227.7 L83.4,227.6 L83.7,227.5 L84.0,227.5 L84.4,227.4 L84.7,227.3 L85.0,227.2 L85.3,227.1 L85.6,227.1 L86.0,227.0 L86.3,226.9 L86.6,226.8 L86.9,226.7 L87.2,226.7 L87.6,226.6 L87.9,226.5 L88.2,226.4 L88.5,226.3 L88.8,226.2 L89.2,226.2 L89.5,226.1 L89.8,226.0 L90.1,225.9 L90.4,225.8 L90.8,225.7 L91.1,225.6 L91.4,225.5 L91.7,225.5 L92.0,225.4 L92.4,225.3 L92.7,225.2 L93.0,225.1 L93.3,225.0 L93.6,224.9 L94.0,224.8 L94.3,224.7 L94.6,224.6 L94.9,224.5 L95.2,224.4 L95.6,224.4 L95.9,224.3 L96.2,224.2 L96.5,224.1 L96.8,224.0 L97.2,223.9 L97.5,223.8 L97.8,223.7 L98.1,223.6 L98.4,223.5 L98.8,223.4 L99.1,223.3 L99.4,223.2 L99.7,223.1 L100.0,223.0 L100.4,222.9 L100.7,222.7 L101.0,222.6 L101.3,222.5 L101.6,222.4 L102.0,222.3 L102.3,222.2 L102.6,222.1 L102.9,222.0 L103.2,221.9 L103.6,221.8 L103.9,221.7 L104.2,221.6 L104.5,221.4 L104.9,221.3 L105.2,221.2 L105.5,221.1 L105.8,221.0 L106.1,220.9 L106.5,220.7 L106.8,220.6 L107.1,220.5 L107.4,220.4 L107.7,220.3 L108.1,220.2 L108.4,220.0 L108.7,219.9 L109.0,219.8 L109.3,219.7 L109.7,219.5 L110.0,219.4 L110.3,219.3 L110.6,219.2 L110.9,219.0 L111.3,218.9 L111.6,218.8 L111.9,218.6 L112.2,218.5 L112.5,218.4 L112.9,218.2 L113.2,218.1 L113.5,218.0 L113.8,217.8 L114.1,217.7 L114.5,217.6 L114.8,217.4 L115.1,217.3 L115.4,217.2 L115.7,217.0 L116.1,216.9 L116.4,216.7 L116.7,216.6 L117.0,216.4 L117.3,216.3 L117.7,216.1 L118.0,216.0 L118.3,215.8 L118.6,215.7 L118.9,215.5 L119.3,215.4 L119.6,215.2 L119.9,215.1 L120.2,214.9 L120.5,214.8 L120.9,214.6 L121.2,214.5 L121.5,214.3 L121.8,214.1 L122.1,214.0 L122.5,213.8 L122.8,213.7 L123.1,213.5 L123.4,213.3 L123.7,213.2 L124.1,213.0 L124.4,212.8 L124.7,212.6 L125.0,212.5 L125.3,212.3 L125.7,212.1 L126.0,211.9 L126.3,211.8 L126.6,211.6 L126.9,211.4 L127.3,211.2 L127.6,211.1 L127.9,210.9 L128.2,210.7 L128.5,210.5 L128.9,210.3 L129.2,210.1 L129.5,209.9 L129.8,209.7 L130.1,209.5 L130.5,209.3 L130.8,209.2 L131.1,209.0 L131.4,208.8 L131.7,208.6 L132.1,208.4 L132.4,208.1 L132.7,207.9 L133.0,207.7 L133.3,207.5 L133.7,207.3 L134.0,207.1 L134.3,206.9 L134.6,206.7 L134.9,206.5 L135.3,206.2 L135.6,206.0 L135.9,205.8 L136.2,205.6 L136.6,205.4 L136.9,205.1 L137.2,204.9 L137.5,204.7 L137.8,204.4 L138.2,204.2 L138.5,204.0 L138.8,203.7 L139.1,203.5 L139.4,203.2 L139.8,203.0 L140.1,202.8 L140.4,202.5 L140.7,202.3 L141.0,202.0 L141.4,201.8 L141.7,201.5 L142.0,201.2 L142.3,201.0 L142.6,200.7 L143.0,200.5 L143.3,200.2 L143.6,199.9 L143.9,199.7 L144.2,199.4 L144.6,199.1 L144.9,198.8 L145.2,198.6 L145.5,198.3 L145.8,198.0 L146.2,197.7 L146.5,197.4 L146.8,197.1 L147.1,196.8 L147.4,196.5 L147.8,196.2 L148.1,195.9 L148.4,195.6 L148.7,195.3 L149.0,195.0 L149.4,194.7 L149.7,194.4 L150.0,194.1 L150.3,193.7 L150.6,193.4 L151.0,193.1 L151.3,192.8 L151.6,192.4 L151.9,192.1 L152.2,191.8 L152.6,191.4 L152.9,191.1 L153.2,190.7 L153.5,190.4 L153.8,190.0 L154.2,189.7 L154.5,189.3 L154.8,188.9 L155.1,188.6 L155.4,188.2 L155.8,187.8 L156.1,187.5 L156.4,187.1 L156.7,186.7 L157.0,186.3 L157.4,185.9 L157.7,185.5 L158.0,185.1 L158.3,184.7 L158.6,184.3 L159.0,183.9 L159.3,183.5 L159.6,183.1 L159.9,182.6 L160.2,182.2 L160.6,181.8 L160.9,181.4 L161.2,180.9 L161.5,180.5 L161.8,180.0 L162.2,179.6 L162.5,179.1 L162.8,178.7 L163.1,178.2 L163.4,177.7 L163.8,177.2 L164.1,176.8 L164.4,176.3 L164.7,175.8 L165.0,175.3 L165.4,174.8 L165.7,174.3 L166.0,173.8 L166.3,173.3 L166.7,172.8 L167.0,172.2 L167.3,171.7 L167.6,171.2 L167.9,170.6 L168.3,170.1 L168.6,169.5 L168.9,169.0 L169.2,168.4 L169.5,167.8 L169.9,167.2 L170.2,166.7 L170.5,166.1 L170.8,165.5 L171.1,164.9 L171.5,164.3 L171.8,163.7 L172.1,163.0 L172.4,162.4 L172.7,161.8 L173.1,161.1 L173.4,160.5 L173.7,159.8 L174.0,159.2 L174.3,158.5 L174.7,157.8 L175.0,157.1 L175.3,156.4 L175.6,155.7 L175.9,155.0 L176.3,154.3 L176.6,153.6 L176.9,152.8 L177.2,152.1 L177.5,151.3 L177.9,150.6 L178.2,149.8 L178.5,149.0 L178.8,148.2 L179.1,147.4 L179.5,146.6 L179.8,145.8 L180.1,145.0 L180.4,144.1 L180.7,143.3 L181.1,142.4 L181.4,141.6 L181.7,140.7 L182.0,139.8 L182.3,138.9 L182.7,138.0 L183.0,137.0 L183.3,136.1 L183.6,135.2 L183.9,134.2 L184.3,133.2 L184.6,132.2 L184.9,131.2 L185.2,130.2 L185.5,129.2 L185.9,128.2 L186.2,127.1 L186.5,126.1 L186.8,125.0 L187.1,123.9 L187.5,122.8 L187.8,121.7 L188.1,120.5 L188.4,119.4 L188.7,118.2 L189.1,117.0 L189.4,115.8 L189.7,114.6 L190.0,113.4 L190.3,112.1 L190.7,110.9 L191.0,109.6 L191.3,108.3 L191.6,107.0 L191.9,105.6 L192.3,104.3 L192.6,102.9 L192.9,101.5 L193.2,100.1 L193.5,98.6 L193.9,97.2 L194.2,95.7 L194.5,94.2 L194.8,92.7 L195.1,91.1 L195.5,89.6 L195.8,88.0 L196.1,86.4 L196.4,84.7 L196.7,83.0 L197.1,81.4 L197.4,79.6 L197.7,77.9 L198.0,76.1 L198.4,74.3 L198.7,72.5 L199.0,70.6 L199.3,68.8 L199.6,66.8 L200.0,64.9 L200.3,62.9 L200.6,60.9 L200.9,58.9 L201.2,56.8 L201.6,54.7 L201.9,52.5 L202.2,50.3 L202.5,48.1 L202.8,45.9 L203.2,43.6 L203.5,41.2 L203.8,38.9 L204.1,36.5 L204.4,34.0 L204.8,31.5 L205.1,29.0" fill="none" stroke="#F4736C" stroke-width="3"/><path d="M314.9,29.0 L315.2,31.5 L315.6,34.0 L315.9,36.5 L316.2,38.9 L316.5,41.2 L316.8,43.6 L317.2,45.9 L317.5,48.1 L317.8,50.3 L318.1,52.5 L318.4,54.7 L318.8,56.8 L319.1,58.9 L319.4,60.9 L319.7,62.9 L320.0,64.9 L320.4,66.8 L320.7,68.8 L321.0,70.6 L321.3,72.5 L321.6,74.3 L322.0,76.1 L322.3,77.9 L322.6,79.6 L322.9,81.4 L323.3,83.0 L323.6,84.7 L323.9,86.4 L324.2,88.0 L324.5,89.6 L324.9,91.1 L325.2,92.7 L325.5,94.2 L325.8,95.7 L326.1,97.2 L326.5,98.6 L326.8,100.1 L327.1,101.5 L327.4,102.9 L327.7,104.3 L328.1,105.6 L328.4,107.0 L328.7,108.3 L329.0,109.6 L329.3,110.9 L329.7,112.1 L330.0,113.4 L330.3,114.6 L330.6,115.8 L330.9,117.0 L331.3,118.2 L331.6,119.4 L331.9,120.5 L332.2,121.7 L332.5,122.8 L332.9,123.9 L333.2,125.0 L333.5,126.1 L333.8,127.1 L334.1,128.2 L334.5,129.2 L334.8,130.2 L335.1,131.2 L335.4,132.2 L335.7,133.2 L336.1,134.2 L336.4,135.2 L336.7,136.1 L337.0,137.0 L337.3,138.0 L337.7,138.9 L338.0,139.8 L338.3,140.7 L338.6,141.6 L338.9,142.4 L339.3,143.3 L339.6,144.1 L339.9,145.0 L340.2,145.8 L340.5,146.6 L340.9,147.4 L341.2,148.2 L341.5,149.0 L341.8,149.8 L342.1,150.6 L342.5,151.3 L342.8,152.1 L343.1,152.8 L343.4,153.6 L343.7,154.3 L344.1,155.0 L344.4,155.7 L344.7,156.4 L345.0,157.1 L345.3,157.8 L345.7,158.5 L346.0,159.2 L346.3,159.8 L346.6,160.5 L346.9,161.1 L347.3,161.8 L347.6,162.4 L347.9,163.0 L348.2,163.7 L348.5,164.3 L348.9,164.9 L349.2,165.5 L349.5,166.1 L349.8,166.7 L350.1,167.2 L350.5,167.8 L350.8,168.4 L351.1,169.0 L351.4,169.5 L351.7,170.1 L352.1,170.6 L352.4,171.2 L352.7,171.7 L353.0,172.2 L353.3,172.8 L353.7,173.3 L354.0,173.8 L354.3,174.3 L354.6,174.8 L355.0,175.3 L355.3,175.8 L355.6,176.3 L355.9,176.8 L356.2,177.2 L356.6,177.7 L356.9,178.2 L357.2,178.7 L357.5,179.1 L357.8,179.6 L358.2,180.0 L358.5,180.5 L358.8,180.9 L359.1,181.4 L359.4,181.8 L359.8,182.2 L360.1,182.6 L360.4,183.1 L360.7,183.5 L361.0,183.9 L361.4,184.3 L361.7,184.7 L362.0,185.1 L362.3,185.5 L362.6,185.9 L363.0,186.3 L363.3,186.7 L363.6,187.1 L363.9,187.5 L364.2,187.8 L364.6,188.2 L364.9,188.6 L365.2,188.9 L365.5,189.3 L365.8,189.7 L366.2,190.0 L366.5,190.4 L366.8,190.7 L367.1,191.1 L367.4,191.4 L367.8,191.8 L368.1,192.1 L368.4,192.4 L368.7,192.8 L369.0,193.1 L369.4,193.4 L369.7,193.7 L370.0,194.1 L370.3,194.4 L370.6,194.7 L371.0,195.0 L371.3,195.3 L371.6,195.6 L371.9,195.9 L372.2,196.2 L372.6,196.5 L372.9,196.8 L373.2,197.1 L373.5,197.4 L373.8,197.7 L374.2,198.0 L374.5,198.3 L374.8,198.6 L375.1,198.8 L375.4,199.1 L375.8,199.4 L376.1,199.7 L376.4,199.9 L376.7,200.2 L377.0,200.5 L377.4,200.7 L377.7,201.0 L378.0,201.2 L378.3,201.5 L378.6,201.8 L379.0,202.0 L379.3,202.3 L379.6,202.5 L379.9,202.8 L380.2,203.0 L380.6,203.2 L380.9,203.5 L381.2,203.7 L381.5,204.0 L381.8,204.2 L382.2,204.4 L382.5,204.7 L382.8,204.9 L383.1,205.1 L383.4,205.4 L383.8,205.6 L384.1,205.8 L384.4,206.0 L384.7,206.2 L385.1,206.5 L385.4,206.7 L385.7,206.9 L386.0,207.1 L386.3,207.3 L386.7,207.5 L387.0,207.7 L387.3,207.9 L387.6,208.1 L387.9,208.4 L388.3,208.6 L388.6,208.8 L388.9,209.0 L389.2,209.2 L389.5,209.3 L389.9,209.5 L390.2,209.7 L390.5,209.9 L390.8,210.1 L391.1,210.3 L391.5,210.5 L391.8,210.7 L392.1,210.9 L392.4,211.1 L392.7,211.2 L393.1,211.4 L393.4,211.6 L393.7,211.8 L394.0,211.9 L394.3,212.1 L394.7,212.3 L395.0,212.5 L395.3,212.6 L395.6,212.8 L395.9,213.0 L396.3,213.2 L396.6,213.3 L396.9,213.5 L397.2,213.7 L397.5,213.8 L397.9,214.0 L398.2,214.1 L398.5,214.3 L398.8,214.5 L399.1,214.6 L399.5,214.8 L399.8,214.9 L400.1,215.1 L400.4,215.2 L400.7,215.4 L401.1,215.5 L401.4,215.7 L401.7,215.8 L402.0,216.0 L402.3,216.1 L402.7,216.3 L403.0,216.4 L403.3,216.6 L403.6,216.7 L403.9,216.9 L404.3,217.0 L404.6,217.2 L404.9,217.3 L405.2,217.4 L405.5,217.6 L405.9,217.7 L406.2,217.8 L406.5,218.0 L406.8,218.1 L407.1,218.2 L407.5,218.4 L407.8,218.5 L408.1,218.6 L408.4,218.8 L408.7,218.9 L409.1,219.0 L409.4,219.2 L409.7,219.3 L410.0,219.4 L410.3,219.5 L410.7,219.7 L411.0,219.8 L411.3,219.9 L411.6,220.0 L411.9,220.2 L412.3,220.3 L412.6,220.4 L412.9,220.5 L413.2,220.6 L413.5,220.7 L413.9,220.9 L414.2,221.0 L414.5,221.1 L414.8,221.2 L415.1,221.3 L415.5,221.4 L415.8,221.6 L416.1,221.7 L416.4,221.8 L416.8,221.9 L417.1,222.0 L417.4,222.1 L417.7,222.2 L418.0,222.3 L418.4,222.4 L418.7,222.5 L419.0,222.6 L419.3,222.7 L419.6,222.9 L420.0,223.0 L420.3,223.1 L420.6,223.2 L420.9,223.3 L421.2,223.4 L421.6,223.5 L421.9,223.6 L422.2,223.7 L422.5,223.8 L422.8,223.9 L423.2,224.0 L423.5,224.1 L423.8,224.2 L424.1,224.3 L424.4,224.4 L424.8,224.4 L425.1,224.5 L425.4,224.6 L425.7,224.7 L426.0,224.8 L426.4,224.9 L426.7,225.0 L427.0,225.1 L427.3,225.2 L427.6,225.3 L428.0,225.4 L428.3,225.5 L428.6,225.5 L428.9,225.6 L429.2,225.7 L429.6,225.8 L429.9,225.9 L430.2,226.0 L430.5,226.1 L430.8,226.2 L431.2,226.2 L431.5,226.3 L431.8,226.4 L432.1,226.5 L432.4,226.6 L432.8,226.7 L433.1,226.7 L433.4,226.8 L433.7,226.9 L434.0,227.0 L434.4,227.1 L434.7,227.1 L435.0,227.2 L435.3,227.3 L435.6,227.4 L436.0,227.5 L436.3,227.5 L436.6,227.6 L436.9,227.7 L437.2,227.8 L437.6,227.8 L437.9,227.9 L438.2,228.0 L438.5,228.1 L438.8,228.1 L439.2,228.2 L439.5,228.3 L439.8,228.4 L440.1,228.4 L440.4,228.5 L440.8,228.6 L441.1,228.7 L441.4,228.7 L441.7,228.8 L442.0,228.9 L442.4,228.9 L442.7,229.0 L443.0,229.1 L443.3,229.1 L443.6,229.2 L444.0,229.3 L444.3,229.4 L444.6,229.4 L444.9,229.5 L445.2,229.6 L445.6,229.6 L445.9,229.7 L446.2,229.8 L446.5,229.8 L446.9,229.9 L447.2,230.0 L447.5,230.0 L447.8,230.1 L448.1,230.1 L448.5,230.2 L448.8,230.3 L449.1,230.3 L449.4,230.4 L449.7,230.5 L450.1,230.5 L450.4,230.6 L450.7,230.6 L451.0,230.7 L451.3,230.8 L451.7,230.8 L452.0,230.9 L452.3,230.9 L452.6,231.0 L452.9,231.1 L453.3,231.1 L453.6,231.2 L453.9,231.2 L454.2,231.3 L454.5,231.4 L454.9,231.4 L455.2,231.5 L455.5,231.5 L455.8,231.6 L456.1,231.6 L456.5,231.7 L456.8,231.8 L457.1,231.8 L457.4,231.9 L457.7,231.9 L458.1,232.0 L458.4,232.0 L458.7,232.1 L459.0,232.1 L459.3,232.2 L459.7,232.2 L460.0,232.3 L460.3,232.4 L460.6,232.4 L460.9,232.5 L461.3,232.5 L461.6,232.6 L461.9,232.6 L462.2,232.7 L462.5,232.7 L462.9,232.8 L463.2,232.8 L463.5,232.9 L463.8,232.9 L464.1,233.0 L464.5,233.0 L464.8,233.1 L465.1,233.1 L465.4,233.2 L465.7,233.2 L466.1,233.3 L466.4,233.3 L466.7,233.4 L467.0,233.4 L467.3,233.5 L467.7,233.5 L468.0,233.6 L468.3,233.6 L468.6,233.6 L468.9,233.7 L469.3,233.7 L469.6,233.8 L469.9,233.8 L470.2,233.9 L470.5,233.9 L470.9,234.0 L471.2,234.0 L471.5,234.1 L471.8,234.1 L472.1,234.1 L472.5,234.2 L472.8,234.2 L473.1,234.3 L473.4,234.3 L473.7,234.4 L474.1,234.4 L474.4,234.5 L474.7,234.5 L475.0,234.5 L475.3,234.6 L475.7,234.6 L476.0,234.7 L476.3,234.7 L476.6,234.8 L477.0,234.8 L477.3,234.8 L477.6,234.9 L477.9,234.9 L478.2,235.0 L478.6,235.0 L478.9,235.0 L479.2,235.1 L479.5,235.1 L479.8,235.2 L480.2,235.2 L480.5,235.2 L480.8,235.3 L481.1,235.3 L481.4,235.4 L481.8,235.4 L482.1,235.4 L482.4,235.5 L482.7,235.5 L483.0,235.6 L483.4,235.6 L483.7,235.6 L484.0,235.7 L484.3,235.7 L484.6,235.7 L485.0,235.8 L485.3,235.8 L485.6,235.9 L485.9,235.9 L486.2,235.9 L486.6,236.0 L486.9,236.0 L487.2,236.0 L487.5,236.1 L487.8,236.1 L488.2,236.1 L488.5,236.2 L488.8,236.2 L489.1,236.3 L489.4,236.3 L489.8,236.3 L490.1,236.4 L490.4,236.4 L490.7,236.4 L491.0,236.5 L491.4,236.5 L491.7,236.5 L492.0,236.6" fill="none" stroke="#F4736C" stroke-width="3"/><line x1="260.0" y1="312.0" x2="260.0" y2="28.0" stroke="#F4736C" stroke-width="1.2" stroke-dasharray="6 5"/><circle cx="115.0" cy="217.3" r="5.5" fill="#FCE678" stroke="#1A1A1A" stroke-width="2"/><circle cx="187.5" cy="122.7" r="5.5" fill="#FCE678" stroke="#1A1A1A" stroke-width="2"/><circle cx="332.5" cy="122.7" r="5.5" fill="#FCE678" stroke="#1A1A1A" stroke-width="2"/><circle cx="405.0" cy="217.3" r="5.5" fill="#FCE678" stroke="#1A1A1A" stroke-width="2"/><text x="260.0" y="296.2" text-anchor="middle" font-size="14" fill="#262A3D" font-weight="700">f(x) = 5 − x²</text><text x="484.8" y="50.1" text-anchor="end" font-size="14" fill="#F4736C" font-weight="700">g(x) = 4/x²</text></svg>
