<svg xmlns="http://www.w3.org/2000/svg" viewBox="0 0 520 340" width="520" height="340" font-family="Inter, Helvetica, Arial, sans-serif" role="img"><title>Gráfica de f para a=1 y b=2: parábola (x+1)² hasta x=1 y x²+2 desde x=1, con salto de 4 a 3; recinto sombreado entre x=−2 y x=1</title><defs><marker id="f" viewBox="0 0 10 10" refX="9" refY="5" markerWidth="7" markerHeight="7" orient="auto"><path d="M0,0 L10,5 L0,10 z" fill="#1A1A1A"/></marker></defs><rect x="1.5" y="1.5" width="517" height="337" fill="#EBF8EE" stroke="#1A1A1A" stroke-width="3"/><path d="M145.8,249.3 L147.7,251.1 L149.5,252.9 L151.4,254.6 L153.2,256.3 L155.0,257.9 L156.9,259.5 L158.7,261.1 L160.6,262.6 L162.4,264.0 L164.3,265.4 L166.1,266.8 L167.9,268.1 L169.8,269.4 L171.6,270.6 L173.5,271.8 L175.3,272.9 L177.1,274.0 L179.0,275.0 L180.8,276.0 L182.7,277.0 L184.5,277.9 L186.3,278.7 L188.2,279.5 L190.0,280.3 L191.9,281.0 L193.7,281.7 L195.6,282.3 L197.4,282.9 L199.2,283.4 L201.1,283.9 L202.9,284.3 L204.8,284.7 L206.6,285.1 L208.4,285.4 L210.3,285.6 L212.1,285.8 L214.0,286.0 L215.8,286.1 L217.7,286.2 L219.5,286.2 L221.3,286.2 L223.2,286.1 L225.0,286.0 L226.9,285.8 L228.7,285.6 L230.5,285.4 L232.4,285.1 L234.2,284.7 L236.1,284.3 L237.9,283.9 L239.7,283.4 L241.6,282.9 L243.4,282.3 L245.3,281.7 L247.1,281.0 L249.0,280.3 L250.8,279.5 L252.6,278.7 L254.5,277.9 L256.3,277.0 L258.2,276.0 L260.0,275.0 L261.8,274.0 L263.7,272.9 L265.5,271.8 L267.4,270.6 L269.2,269.4 L271.0,268.1 L272.9,266.8 L274.7,265.4 L276.6,264.0 L278.4,262.6 L280.3,261.1 L282.1,259.5 L283.9,257.9 L285.8,256.3 L287.6,254.6 L289.5,252.9 L291.3,251.1 L293.1,249.3 L295.0,247.4 L296.8,245.5 L298.7,243.6 L300.5,241.6 L302.3,239.5 L304.2,237.4 L306.0,235.3 L307.9,233.1 L309.7,230.8 L311.6,228.6 L313.4,226.2 L315.2,223.8 L317.1,221.4 L318.9,219.0 L320.8,216.4 L322.6,213.9 L324.4,211.3 L326.3,208.6 L328.1,205.9 L330.0,203.2 L331.8,200.4 L333.7,197.6 L335.5,194.7 L337.3,191.8 L339.2,188.8 L341.0,185.8 L342.9,182.7 L344.7,179.6 L346.5,176.4 L348.4,173.2 L350.2,170.0 L352.1,166.7 L353.9,163.3 L355.7,159.9 L357.6,156.5 L359.4,153.0 L361.3,149.5 L363.1,145.9 L365.0,142.3 L366.8,138.6 L366.8,286.2 L365.0,286.2 L363.1,286.2 L361.3,286.2 L359.4,286.2 L357.6,286.2 L355.7,286.2 L353.9,286.2 L352.1,286.2 L350.2,286.2 L348.4,286.2 L346.5,286.2 L344.7,286.2 L342.9,286.2 L341.0,286.2 L339.2,286.2 L337.3,286.2 L335.5,286.2 L333.7,286.2 L331.8,286.2 L330.0,286.2 L328.1,286.2 L326.3,286.2 L324.4,286.2 L322.6,286.2 L320.8,286.2 L318.9,286.2 L317.1,286.2 L315.2,286.2 L313.4,286.2 L311.6,286.2 L309.7,286.2 L307.9,286.2 L306.0,286.2 L304.2,286.2 L302.3,286.2 L300.5,286.2 L298.7,286.2 L296.8,286.2 L295.0,286.2 L293.1,286.2 L291.3,286.2 L289.5,286.2 L287.6,286.2 L285.8,286.2 L283.9,286.2 L282.1,286.2 L280.3,286.2 L278.4,286.2 L276.6,286.2 L274.7,286.2 L272.9,286.2 L271.0,286.2 L269.2,286.2 L267.4,286.2 L265.5,286.2 L263.7,286.2 L261.8,286.2 L260.0,286.2 L258.2,286.2 L256.3,286.2 L254.5,286.2 L252.6,286.2 L250.8,286.2 L249.0,286.2 L247.1,286.2 L245.3,286.2 L243.4,286.2 L241.6,286.2 L239.7,286.2 L237.9,286.2 L236.1,286.2 L234.2,286.2 L232.4,286.2 L230.5,286.2 L228.7,286.2 L226.9,286.2 L225.0,286.2 L223.2,286.2 L221.3,286.2 L219.5,286.2 L217.7,286.2 L215.8,286.2 L214.0,286.2 L212.1,286.2 L210.3,286.2 L208.4,286.2 L206.6,286.2 L204.8,286.2 L202.9,286.2 L201.1,286.2 L199.2,286.2 L197.4,286.2 L195.6,286.2 L193.7,286.2 L191.9,286.2 L190.0,286.2 L188.2,286.2 L186.3,286.2 L184.5,286.2 L182.7,286.2 L180.8,286.2 L179.0,286.2 L177.1,286.2 L175.3,286.2 L173.5,286.2 L171.6,286.2 L169.8,286.2 L167.9,286.2 L166.1,286.2 L164.3,286.2 L162.4,286.2 L160.6,286.2 L158.7,286.2 L156.9,286.2 L155.0,286.2 L153.2,286.2 L151.4,286.2 L149.5,286.2 L147.7,286.2 L145.8,286.2 Z" fill="#FCE678" stroke="#1A1A1A" stroke-width="1.5"/><line x1="28.0" y1="286.2" x2="492.0" y2="286.2" stroke="#1A1A1A" stroke-width="1.5" marker-end="url(#f)"/><line x1="293.1" y1="312.0" x2="293.1" y2="28.0" stroke="#1A1A1A" stroke-width="1.5" marker-end="url(#f)"/><line x1="72.2" y1="282.2" x2="72.2" y2="290.2" stroke="#1A1A1A"/><text x="72.2" y="304.2" text-anchor="middle" font-size="14" fill="#1A1A1A">−3</text><line x1="145.8" y1="282.2" x2="145.8" y2="290.2" stroke="#1A1A1A"/><text x="145.8" y="304.2" text-anchor="middle" font-size="14" fill="#1A1A1A">−2</text><line x1="219.5" y1="282.2" x2="219.5" y2="290.2" stroke="#1A1A1A"/><text x="219.5" y="304.2" text-anchor="middle" font-size="14" fill="#1A1A1A">−1</text><line x1="366.8" y1="282.2" x2="366.8" y2="290.2" stroke="#1A1A1A"/><text x="366.8" y="304.2" text-anchor="middle" font-size="14" fill="#1A1A1A">1</text><line x1="440.4" y1="282.2" x2="440.4" y2="290.2" stroke="#1A1A1A"/><text x="440.4" y="304.2" text-anchor="middle" font-size="14" fill="#1A1A1A">2</text><line x1="289.1" y1="249.3" x2="297.1" y2="249.3" stroke="#1A1A1A"/><text x="283.1" y="253.3" text-anchor="end" font-size="14" fill="#1A1A1A">1</text><line x1="289.1" y1="138.6" x2="297.1" y2="138.6" stroke="#1A1A1A"/><text x="283.1" y="142.6" text-anchor="end" font-size="14" fill="#1A1A1A">4</text><line x1="289.1" y1="64.9" x2="297.1" y2="64.9" stroke="#1A1A1A"/><text x="283.1" y="68.9" text-anchor="end" font-size="14" fill="#1A1A1A">6</text><path d="M72.2,138.6 L72.7,139.6 L73.2,140.6 L73.7,141.6 L74.2,142.6 L74.6,143.5 L75.1,144.5 L75.6,145.5 L76.1,146.4 L76.6,147.4 L77.1,148.3 L77.6,149.3 L78.1,150.2 L78.6,151.2 L79.1,152.1 L79.6,153.0 L80.0,154.0 L80.5,154.9 L81.0,155.8 L81.5,156.7 L82.0,157.7 L82.5,158.6 L83.0,159.5 L83.5,160.4 L84.0,161.3 L84.5,162.2 L85.0,163.1 L85.4,164.0 L85.9,164.9 L86.4,165.8 L86.9,166.7 L87.4,167.6 L87.9,168.4 L88.4,169.3 L88.9,170.2 L89.4,171.1 L89.9,171.9 L90.4,172.8 L90.8,173.7 L91.3,174.5 L91.8,175.4 L92.3,176.2 L92.8,177.1 L93.3,177.9 L93.8,178.8 L94.3,179.6 L94.8,180.4 L95.3,181.3 L95.8,182.1 L96.2,182.9 L96.7,183.7 L97.2,184.5 L97.7,185.4 L98.2,186.2 L98.7,187.0 L99.2,187.8 L99.7,188.6 L100.2,189.4 L100.7,190.2 L101.2,191.0 L101.7,191.8 L102.1,192.5 L102.6,193.3 L103.1,194.1 L103.6,194.9 L104.1,195.7 L104.6,196.4 L105.1,197.2 L105.6,198.0 L106.1,198.7 L106.6,199.5 L107.1,200.2 L107.5,201.0 L108.0,201.7 L108.5,202.5 L109.0,203.2 L109.5,203.9 L110.0,204.7 L110.5,205.4 L111.0,206.1 L111.5,206.8 L112.0,207.6 L112.5,208.3 L112.9,209.0 L113.4,209.7 L113.9,210.4 L114.4,211.1 L114.9,211.8 L115.4,212.5 L115.9,213.2 L116.4,213.9 L116.9,214.6 L117.4,215.3 L117.9,215.9 L118.3,216.6 L118.8,217.3 L119.3,218.0 L119.8,218.6 L120.3,219.3 L120.8,220.0 L121.3,220.6 L121.8,221.3 L122.3,221.9 L122.8,222.6 L123.3,223.2 L123.7,223.8 L124.2,224.5 L124.7,225.1 L125.2,225.8 L125.7,226.4 L126.2,227.0 L126.7,227.6 L127.2,228.2 L127.7,228.9 L128.2,229.5 L128.7,230.1 L129.1,230.7 L129.6,231.3 L130.1,231.9 L130.6,232.5 L131.1,233.1 L131.6,233.7 L132.1,234.2 L132.6,234.8 L133.1,235.4 L133.6,236.0 L134.1,236.6 L134.5,237.1 L135.0,237.7 L135.5,238.2 L136.0,238.8 L136.5,239.4 L137.0,239.9 L137.5,240.5 L138.0,241.0 L138.5,241.6 L139.0,242.1 L139.5,242.6 L139.9,243.2 L140.4,243.7 L140.9,244.2 L141.4,244.7 L141.9,245.3 L142.4,245.8 L142.9,246.3 L143.4,246.8 L143.9,247.3 L144.4,247.8 L144.9,248.3 L145.4,248.8 L145.8,249.3 L146.3,249.8 L146.8,250.3 L147.3,250.8 L147.8,251.2 L148.3,251.7 L148.8,252.2 L149.3,252.7 L149.8,253.1 L150.3,253.6 L150.8,254.1 L151.2,254.5 L151.7,255.0 L152.2,255.4 L152.7,255.9 L153.2,256.3 L153.7,256.7 L154.2,257.2 L154.7,257.6 L155.2,258.1 L155.7,258.5 L156.2,258.9 L156.6,259.3 L157.1,259.7 L157.6,260.2 L158.1,260.6 L158.6,261.0 L159.1,261.4 L159.6,261.8 L160.1,262.2 L160.6,262.6 L161.1,263.0 L161.6,263.4 L162.0,263.7 L162.5,264.1 L163.0,264.5 L163.5,264.9 L164.0,265.3 L164.5,265.6 L165.0,266.0 L165.5,266.3 L166.0,266.7 L166.5,267.1 L167.0,267.4 L167.4,267.8 L167.9,268.1 L168.4,268.5 L168.9,268.8 L169.4,269.1 L169.9,269.5 L170.4,269.8 L170.9,270.1 L171.4,270.4 L171.9,270.8 L172.4,271.1 L172.8,271.4 L173.3,271.7 L173.8,272.0 L174.3,272.3 L174.8,272.6 L175.3,272.9 L175.8,273.2 L176.3,273.5 L176.8,273.8 L177.3,274.1 L177.8,274.3 L178.2,274.6 L178.7,274.9 L179.2,275.2 L179.7,275.4 L180.2,275.7 L180.7,276.0 L181.2,276.2 L181.7,276.5 L182.2,276.7 L182.7,277.0 L183.2,277.2 L183.6,277.4 L184.1,277.7 L184.6,277.9 L185.1,278.1 L185.6,278.4 L186.1,278.6 L186.6,278.8 L187.1,279.0 L187.6,279.3 L188.1,279.5 L188.6,279.7 L189.0,279.9 L189.5,280.1 L190.0,280.3 L190.5,280.5 L191.0,280.7 L191.5,280.9 L192.0,281.0 L192.5,281.2 L193.0,281.4 L193.5,281.6 L194.0,281.7 L194.5,281.9 L194.9,282.1 L195.4,282.2 L195.9,282.4 L196.4,282.6 L196.9,282.7 L197.4,282.9 L197.9,283.0 L198.4,283.2 L198.9,283.3 L199.4,283.4 L199.9,283.6 L200.3,283.7 L200.8,283.8 L201.3,283.9 L201.8,284.1 L202.3,284.2 L202.8,284.3 L203.3,284.4 L203.8,284.5 L204.3,284.6 L204.8,284.7 L205.3,284.8 L205.7,284.9 L206.2,285.0 L206.7,285.1 L207.2,285.2 L207.7,285.2 L208.2,285.3 L208.7,285.4 L209.2,285.5 L209.7,285.5 L210.2,285.6 L210.7,285.7 L211.1,285.7 L211.6,285.8 L212.1,285.8 L212.6,285.9 L213.1,285.9 L213.6,285.9 L214.1,286.0 L214.6,286.0 L215.1,286.0 L215.6,286.1 L216.1,286.1 L216.5,286.1 L217.0,286.1 L217.5,286.2 L218.0,286.2 L218.5,286.2 L219.0,286.2 L219.5,286.2 L220.0,286.2 L220.5,286.2 L221.0,286.2 L221.5,286.2 L221.9,286.1 L222.4,286.1 L222.9,286.1 L223.4,286.1 L223.9,286.0 L224.4,286.0 L224.9,286.0 L225.4,285.9 L225.9,285.9 L226.4,285.9 L226.9,285.8 L227.3,285.8 L227.8,285.7 L228.3,285.7 L228.8,285.6 L229.3,285.5 L229.8,285.5 L230.3,285.4 L230.8,285.3 L231.3,285.2 L231.8,285.2 L232.3,285.1 L232.7,285.0 L233.2,284.9 L233.7,284.8 L234.2,284.7 L234.7,284.6 L235.2,284.5 L235.7,284.4 L236.2,284.3 L236.7,284.2 L237.2,284.1 L237.7,283.9 L238.2,283.8 L238.6,283.7 L239.1,283.6 L239.6,283.4 L240.1,283.3 L240.6,283.2 L241.1,283.0 L241.6,282.9 L242.1,282.7 L242.6,282.6 L243.1,282.4 L243.6,282.2 L244.0,282.1 L244.5,281.9 L245.0,281.7 L245.5,281.6 L246.0,281.4 L246.5,281.2 L247.0,281.0 L247.5,280.9 L248.0,280.7 L248.5,280.5 L249.0,280.3 L249.4,280.1 L249.9,279.9 L250.4,279.7 L250.9,279.5 L251.4,279.3 L251.9,279.0 L252.4,278.8 L252.9,278.6 L253.4,278.4 L253.9,278.1 L254.4,277.9 L254.8,277.7 L255.3,277.4 L255.8,277.2 L256.3,277.0 L256.8,276.7 L257.3,276.5 L257.8,276.2 L258.3,276.0 L258.8,275.7 L259.3,275.4 L259.8,275.2 L260.2,274.9 L260.7,274.6 L261.2,274.3 L261.7,274.1 L262.2,273.8 L262.7,273.5 L263.2,273.2 L263.7,272.9 L264.2,272.6 L264.7,272.3 L265.2,272.0 L265.6,271.7 L266.1,271.4 L266.6,271.1 L267.1,270.8 L267.6,270.4 L268.1,270.1 L268.6,269.8 L269.1,269.5 L269.6,269.1 L270.1,268.8 L270.6,268.5 L271.0,268.1 L271.5,267.8 L272.0,267.4 L272.5,267.1 L273.0,266.7 L273.5,266.3 L274.0,266.0 L274.5,265.6 L275.0,265.3 L275.5,264.9 L276.0,264.5 L276.4,264.1 L276.9,263.7 L277.4,263.4 L277.9,263.0 L278.4,262.6 L278.9,262.2 L279.4,261.8 L279.9,261.4 L280.4,261.0 L280.9,260.6 L281.4,260.2 L281.8,259.7 L282.3,259.3 L282.8,258.9 L283.3,258.5 L283.8,258.1 L284.3,257.6 L284.8,257.2 L285.3,256.7 L285.8,256.3 L286.3,255.9 L286.8,255.4 L287.3,255.0 L287.7,254.5 L288.2,254.1 L288.7,253.6 L289.2,253.1 L289.7,252.7 L290.2,252.2 L290.7,251.7 L291.2,251.2 L291.7,250.8 L292.2,250.3 L292.7,249.8 L293.1,249.3 L293.6,248.8 L294.1,248.3 L294.6,247.8 L295.1,247.3 L295.6,246.8 L296.1,246.3 L296.6,245.8 L297.1,245.3 L297.6,244.7 L298.1,244.2 L298.5,243.7 L299.0,243.2 L299.5,242.6 L300.0,242.1 L300.5,241.6 L301.0,241.0 L301.5,240.5 L302.0,239.9 L302.5,239.4 L303.0,238.8 L303.5,238.2 L303.9,237.7 L304.4,237.1 L304.9,236.6 L305.4,236.0 L305.9,235.4 L306.4,234.8 L306.9,234.2 L307.4,233.7 L307.9,233.1 L308.4,232.5 L308.9,231.9 L309.3,231.3 L309.8,230.7 L310.3,230.1 L310.8,229.5 L311.3,228.9 L311.8,228.2 L312.3,227.6 L312.8,227.0 L313.3,226.4 L313.8,225.8 L314.3,225.1 L314.7,224.5 L315.2,223.8 L315.7,223.2 L316.2,222.6 L316.7,221.9 L317.2,221.3 L317.7,220.6 L318.2,220.0 L318.7,219.3 L319.2,218.6 L319.7,218.0 L320.1,217.3 L320.6,216.6 L321.1,215.9 L321.6,215.3 L322.1,214.6 L322.6,213.9 L323.1,213.2 L323.6,212.5 L324.1,211.8 L324.6,211.1 L325.1,210.4 L325.5,209.7 L326.0,209.0 L326.5,208.3 L327.0,207.6 L327.5,206.8 L328.0,206.1 L328.5,205.4 L329.0,204.7 L329.5,203.9 L330.0,203.2 L330.5,202.5 L331.0,201.7 L331.4,201.0 L331.9,200.2 L332.4,199.5 L332.9,198.7 L333.4,198.0 L333.9,197.2 L334.4,196.4 L334.9,195.7 L335.4,194.9 L335.9,194.1 L336.4,193.3 L336.8,192.5 L337.3,191.8 L337.8,191.0 L338.3,190.2 L338.8,189.4 L339.3,188.6 L339.8,187.8 L340.3,187.0 L340.8,186.2 L341.3,185.4 L341.8,184.5 L342.2,183.7 L342.7,182.9 L343.2,182.1 L343.7,181.3 L344.2,180.4 L344.7,179.6 L345.2,178.8 L345.7,177.9 L346.2,177.1 L346.7,176.2 L347.2,175.4 L347.6,174.5 L348.1,173.7 L348.6,172.8 L349.1,171.9 L349.6,171.1 L350.1,170.2 L350.6,169.3 L351.1,168.4 L351.6,167.6 L352.1,166.7 L352.6,165.8 L353.0,164.9 L353.5,164.0 L354.0,163.1 L354.5,162.2 L355.0,161.3 L355.5,160.4 L356.0,159.5 L356.5,158.6 L357.0,157.7 L357.5,156.7 L358.0,155.8 L358.4,154.9 L358.9,154.0 L359.4,153.0 L359.9,152.1 L360.4,151.2 L360.9,150.2 L361.4,149.3 L361.9,148.3 L362.4,147.4 L362.9,146.4 L363.4,145.5 L363.8,144.5 L364.3,143.5 L364.8,142.6 L365.3,141.6 L365.8,140.6 L366.3,139.6 L366.8,138.6" fill="none" stroke="#262A3D" stroke-width="3"/><path d="M366.8,175.5 L366.9,175.4 L367.0,175.3 L367.2,175.2 L367.3,175.0 L367.4,174.9 L367.5,174.8 L367.7,174.7 L367.8,174.5 L367.9,174.4 L368.0,174.3 L368.1,174.2 L368.3,174.0 L368.4,173.9 L368.5,173.8 L368.6,173.7 L368.8,173.5 L368.9,173.4 L369.0,173.3 L369.1,173.2 L369.2,173.0 L369.4,172.9 L369.5,172.8 L369.6,172.7 L369.7,172.5 L369.9,172.4 L370.0,172.3 L370.1,172.1 L370.2,172.0 L370.4,171.9 L370.5,171.8 L370.6,171.6 L370.7,171.5 L370.8,171.4 L371.0,171.2 L371.1,171.1 L371.2,171.0 L371.3,170.8 L371.5,170.7 L371.6,170.6 L371.7,170.5 L371.8,170.3 L371.9,170.2 L372.1,170.1 L372.2,169.9 L372.3,169.8 L372.4,169.7 L372.6,169.5 L372.7,169.4 L372.8,169.3 L372.9,169.1 L373.1,169.0 L373.2,168.9 L373.3,168.7 L373.4,168.6 L373.5,168.5 L373.7,168.3 L373.8,168.2 L373.9,168.1 L374.0,167.9 L374.2,167.8 L374.3,167.7 L374.4,167.5 L374.5,167.4 L374.6,167.2 L374.8,167.1 L374.9,167.0 L375.0,166.8 L375.1,166.7 L375.3,166.6 L375.4,166.4 L375.5,166.3 L375.6,166.1 L375.8,166.0 L375.9,165.9 L376.0,165.7 L376.1,165.6 L376.2,165.5 L376.4,165.3 L376.5,165.2 L376.6,165.0 L376.7,164.9 L376.9,164.8 L377.0,164.6 L377.1,164.5 L377.2,164.3 L377.4,164.2 L377.5,164.1 L377.6,163.9 L377.7,163.8 L377.8,163.6 L378.0,163.5 L378.1,163.4 L378.2,163.2 L378.3,163.1 L378.5,162.9 L378.6,162.8 L378.7,162.6 L378.8,162.5 L378.9,162.4 L379.1,162.2 L379.2,162.1 L379.3,161.9 L379.4,161.8 L379.6,161.6 L379.7,161.5 L379.8,161.3 L379.9,161.2 L380.1,161.1 L380.2,160.9 L380.3,160.8 L380.4,160.6 L380.5,160.5 L380.7,160.3 L380.8,160.2 L380.9,160.0 L381.0,159.9 L381.2,159.7 L381.3,159.6 L381.4,159.5 L381.5,159.3 L381.6,159.2 L381.8,159.0 L381.9,158.9 L382.0,158.7 L382.1,158.6 L382.3,158.4 L382.4,158.3 L382.5,158.1 L382.6,158.0 L382.8,157.8 L382.9,157.7 L383.0,157.5 L383.1,157.4 L383.2,157.2 L383.4,157.1 L383.5,156.9 L383.6,156.8 L383.7,156.6 L383.9,156.5 L384.0,156.3 L384.1,156.2 L384.2,156.0 L384.3,155.9 L384.5,155.7 L384.6,155.6 L384.7,155.4 L384.8,155.2 L385.0,155.1 L385.1,154.9 L385.2,154.8 L385.3,154.6 L385.5,154.5 L385.6,154.3 L385.7,154.2 L385.8,154.0 L385.9,153.9 L386.1,153.7 L386.2,153.5 L386.3,153.4 L386.4,153.2 L386.6,153.1 L386.7,152.9 L386.8,152.8 L386.9,152.6 L387.0,152.5 L387.2,152.3 L387.3,152.1 L387.4,152.0 L387.5,151.8 L387.7,151.7 L387.8,151.5 L387.9,151.4 L388.0,151.2 L388.2,151.0 L388.3,150.9 L388.4,150.7 L388.5,150.6 L388.6,150.4 L388.8,150.2 L388.9,150.1 L389.0,149.9 L389.1,149.8 L389.3,149.6 L389.4,149.4 L389.5,149.3 L389.6,149.1 L389.7,149.0 L389.9,148.8 L390.0,148.6 L390.1,148.5 L390.2,148.3 L390.4,148.2 L390.5,148.0 L390.6,147.8 L390.7,147.7 L390.9,147.5 L391.0,147.3 L391.1,147.2 L391.2,147.0 L391.3,146.8 L391.5,146.7 L391.6,146.5 L391.7,146.4 L391.8,146.2 L392.0,146.0 L392.1,145.9 L392.2,145.7 L392.3,145.5 L392.4,145.4 L392.6,145.2 L392.7,145.0 L392.8,144.9 L392.9,144.7 L393.1,144.5 L393.2,144.4 L393.3,144.2 L393.4,144.0 L393.6,143.9 L393.7,143.7 L393.8,143.5 L393.9,143.4 L394.0,143.2 L394.2,143.0 L394.3,142.9 L394.4,142.7 L394.5,142.5 L394.7,142.3 L394.8,142.2 L394.9,142.0 L395.0,141.8 L395.1,141.7 L395.3,141.5 L395.4,141.3 L395.5,141.2 L395.6,141.0 L395.8,140.8 L395.9,140.6 L396.0,140.5 L396.1,140.3 L396.3,140.1 L396.4,140.0 L396.5,139.8 L396.6,139.6 L396.7,139.4 L396.9,139.3 L397.0,139.1 L397.1,138.9 L397.2,138.7 L397.4,138.6 L397.5,138.4 L397.6,138.2 L397.7,138.0 L397.8,137.9 L398.0,137.7 L398.1,137.5 L398.2,137.3 L398.3,137.2 L398.5,137.0 L398.6,136.8 L398.7,136.6 L398.8,136.5 L399.0,136.3 L399.1,136.1 L399.2,135.9 L399.3,135.8 L399.4,135.6 L399.6,135.4 L399.7,135.2 L399.8,135.0 L399.9,134.9 L400.1,134.7 L400.2,134.5 L400.3,134.3 L400.4,134.2 L400.6,134.0 L400.7,133.8 L400.8,133.6 L400.9,133.4 L401.0,133.3 L401.2,133.1 L401.3,132.9 L401.4,132.7 L401.5,132.5 L401.7,132.4 L401.8,132.2 L401.9,132.0 L402.0,131.8 L402.1,131.6 L402.3,131.4 L402.4,131.3 L402.5,131.1 L402.6,130.9 L402.8,130.7 L402.9,130.5 L403.0,130.3 L403.1,130.2 L403.3,130.0 L403.4,129.8 L403.5,129.6 L403.6,129.4 L403.7,129.2 L403.9,129.1 L404.0,128.9 L404.1,128.7 L404.2,128.5 L404.4,128.3 L404.5,128.1 L404.6,127.9 L404.7,127.8 L404.8,127.6 L405.0,127.4 L405.1,127.2 L405.2,127.0 L405.3,126.8 L405.5,126.6 L405.6,126.5 L405.7,126.3 L405.8,126.1 L406.0,125.9 L406.1,125.7 L406.2,125.5 L406.3,125.3 L406.4,125.1 L406.6,124.9 L406.7,124.8 L406.8,124.6 L406.9,124.4 L407.1,124.2 L407.2,124.0 L407.3,123.8 L407.4,123.6 L407.5,123.4 L407.7,123.2 L407.8,123.0 L407.9,122.8 L408.0,122.7 L408.2,122.5 L408.3,122.3 L408.4,122.1 L408.5,121.9 L408.7,121.7 L408.8,121.5 L408.9,121.3 L409.0,121.1 L409.1,120.9 L409.3,120.7 L409.4,120.5 L409.5,120.3 L409.6,120.1 L409.8,120.0 L409.9,119.8 L410.0,119.6 L410.1,119.4 L410.2,119.2 L410.4,119.0 L410.5,118.8 L410.6,118.6 L410.7,118.4 L410.9,118.2 L411.0,118.0 L411.1,117.8 L411.2,117.6 L411.4,117.4 L411.5,117.2 L411.6,117.0 L411.7,116.8 L411.8,116.6 L412.0,116.4 L412.1,116.2 L412.2,116.0 L412.3,115.8 L412.5,115.6 L412.6,115.4 L412.7,115.2 L412.8,115.0 L412.9,114.8 L413.1,114.6 L413.2,114.4 L413.3,114.2 L413.4,114.0 L413.6,113.8 L413.7,113.6 L413.8,113.4 L413.9,113.2 L414.1,113.0 L414.2,112.8 L414.3,112.6 L414.4,112.4 L414.5,112.2 L414.7,112.0 L414.8,111.8 L414.9,111.6 L415.0,111.4 L415.2,111.2 L415.3,111.0 L415.4,110.8 L415.5,110.6 L415.6,110.4 L415.8,110.2 L415.9,110.0 L416.0,109.8 L416.1,109.6 L416.3,109.3 L416.4,109.1 L416.5,108.9 L416.6,108.7 L416.8,108.5 L416.9,108.3 L417.0,108.1 L417.1,107.9 L417.2,107.7 L417.4,107.5 L417.5,107.3 L417.6,107.1 L417.7,106.9 L417.9,106.7 L418.0,106.4 L418.1,106.2 L418.2,106.0 L418.3,105.8 L418.5,105.6 L418.6,105.4 L418.7,105.2 L418.8,105.0 L419.0,104.8 L419.1,104.6 L419.2,104.4 L419.3,104.1 L419.5,103.9 L419.6,103.7 L419.7,103.5 L419.8,103.3 L419.9,103.1 L420.1,102.9 L420.2,102.7 L420.3,102.5 L420.4,102.2 L420.6,102.0 L420.7,101.8 L420.8,101.6 L420.9,101.4 L421.0,101.2 L421.2,101.0 L421.3,100.7 L421.4,100.5 L421.5,100.3 L421.7,100.1 L421.8,99.9 L421.9,99.7 L422.0,99.5 L422.2,99.2 L422.3,99.0 L422.4,98.8 L422.5,98.6 L422.6,98.4 L422.8,98.2 L422.9,97.9 L423.0,97.7 L423.1,97.5 L423.3,97.3 L423.4,97.1 L423.5,96.9 L423.6,96.6 L423.8,96.4 L423.9,96.2 L424.0,96.0 L424.1,95.8 L424.2,95.6 L424.4,95.3 L424.5,95.1 L424.6,94.9 L424.7,94.7 L424.9,94.5 L425.0,94.2 L425.1,94.0 L425.2,93.8 L425.3,93.6 L425.5,93.4 L425.6,93.1 L425.7,92.9 L425.8,92.7 L426.0,92.5 L426.1,92.2 L426.2,92.0 L426.3,91.8 L426.5,91.6 L426.6,91.4 L426.7,91.1 L426.8,90.9 L426.9,90.7 L427.1,90.5 L427.2,90.2 L427.3,90.0 L427.4,89.8 L427.6,89.6 L427.7,89.3 L427.8,89.1 L427.9,88.9 L428.0,88.7 L428.2,88.4 L428.3,88.2 L428.4,88.0 L428.5,87.8 L428.7,87.5 L428.8,87.3 L428.9,87.1 L429.0,86.9 L429.2,86.6 L429.3,86.4 L429.4,86.2 L429.5,86.0 L429.6,85.7 L429.8,85.5 L429.9,85.3 L430.0,85.0 L430.1,84.8 L430.3,84.6 L430.4,84.4 L430.5,84.1 L430.6,83.9 L430.7,83.7 L430.9,83.4 L431.0,83.2 L431.1,83.0 L431.2,82.7 L431.4,82.5 L431.5,82.3 L431.6,82.1 L431.7,81.8 L431.9,81.6 L432.0,81.4 L432.1,81.1 L432.2,80.9 L432.3,80.7 L432.5,80.4 L432.6,80.2 L432.7,80.0 L432.8,79.7 L433.0,79.5 L433.1,79.3 L433.2,79.0 L433.3,78.8 L433.4,78.6 L433.6,78.3 L433.7,78.1 L433.8,77.9 L433.9,77.6 L434.1,77.4 L434.2,77.2 L434.3,76.9 L434.4,76.7 L434.6,76.4 L434.7,76.2 L434.8,76.0 L434.9,75.7 L435.0,75.5 L435.2,75.3 L435.3,75.0 L435.4,74.8 L435.5,74.6 L435.7,74.3 L435.8,74.1 L435.9,73.8 L436.0,73.6 L436.1,73.4 L436.3,73.1 L436.4,72.9 L436.5,72.6 L436.6,72.4 L436.8,72.2 L436.9,71.9 L437.0,71.7 L437.1,71.4 L437.3,71.2 L437.4,71.0 L437.5,70.7 L437.6,70.5 L437.7,70.2 L437.9,70.0 L438.0,69.8 L438.1,69.5 L438.2,69.3 L438.4,69.0 L438.5,68.8 L438.6,68.5 L438.7,68.3 L438.8,68.1 L439.0,67.8 L439.1,67.6 L439.2,67.3 L439.3,67.1 L439.5,66.8 L439.6,66.6 L439.7,66.4 L439.8,66.1 L440.0,65.9 L440.1,65.6 L440.2,65.4 L440.3,65.1 L440.4,64.9" fill="none" stroke="#262A3D" stroke-width="3"/><circle cx="72.2" cy="138.6" r="5.5" fill="#FCE678" stroke="#1A1A1A" stroke-width="2"/><circle cx="219.5" cy="286.2" r="5.5" fill="#FCE678" stroke="#1A1A1A" stroke-width="2"/><circle cx="366.8" cy="138.6" r="5.5" fill="#FCE678" stroke="#1A1A1A" stroke-width="2"/><circle cx="440.4" cy="64.9" r="5.5" fill="#FCE678" stroke="#1A1A1A" stroke-width="2"/><circle cx="366.8" cy="175.5" r="5.5" fill="#EBF8EE" stroke="#1A1A1A" stroke-width="2"/></svg>
