<svg xmlns="http://www.w3.org/2000/svg" viewBox="0 0 520 340" width="520" height="340" font-family="Inter, Helvetica, Arial, sans-serif" role="img"><title>Región factible del ejercicio 1 (2022-ord), con sus vértices: (0, 9), (28, 9), (12, 21), (0, 25). Vértice con el máximo: (28, 9)</title><defs><marker id="f" viewBox="0 0 10 10" refX="9" refY="5" markerWidth="7" markerHeight="7" orient="auto"><path d="M0,0 L10,5 L0,10 z" fill="#1A1A1A"/></marker></defs><rect x="1.5" y="1.5" width="517" height="337" fill="#EBF8EE" stroke="#1A1A1A" stroke-width="3"/><path d="M76.5,206.0 L422.7,206.0 L224.9,104.3 L76.5,70.4 Z" fill="#FCE678" fill-opacity="0.75" stroke="none"/><line x1="28.0" y1="282.3" x2="492.0" y2="282.3" stroke="#1A1A1A" stroke-width="1.5" marker-end="url(#f)"/><line x1="76.5" y1="312.0" x2="76.5" y2="28.0" stroke="#1A1A1A" stroke-width="1.5" marker-end="url(#f)"/><line x1="492.0" y1="241.6" x2="76.5" y2="28.0" stroke="#F4736C" stroke-width="2" stroke-dasharray="0"/><line x1="28.0" y1="59.3" x2="492.0" y2="165.3" stroke="#F4736C" stroke-width="2" stroke-dasharray="0"/><line x1="28.0" y1="206.0" x2="492.0" y2="206.0" stroke="#F4736C" stroke-width="2" stroke-dasharray="0"/><line x1="76.5" y1="312.0" x2="76.5" y2="28.0" stroke="#F4736C" stroke-width="2" stroke-dasharray="0"/><path d="M76.5,206.0 L422.7,206.0 L224.9,104.3 L76.5,70.4 Z" fill="none" stroke="#262A3D" stroke-width="3"/><circle cx="76.5" cy="206.0" r="5.5" fill="#5EC4B6" stroke="#1A1A1A" stroke-width="2"/><text x="88.5" y="224.0" text-anchor="start" font-size="13" fill="#262A3D" font-weight="700">(0, 9)</text><circle cx="422.7" cy="206.0" r="11" fill="none" stroke="#F4736C" stroke-width="3.5"/><circle cx="422.7" cy="206.0" r="5.5" fill="#F4736C" stroke="#1A1A1A" stroke-width="2"/><text x="410.7" y="224.0" text-anchor="end" font-size="13" fill="#262A3D" font-weight="700">(28, 9) máximo</text><circle cx="224.9" cy="104.3" r="5.5" fill="#5EC4B6" stroke="#1A1A1A" stroke-width="2"/><text x="236.9" y="94.3" text-anchor="start" font-size="13" fill="#262A3D" font-weight="700">(12, 21)</text><circle cx="76.5" cy="70.4" r="5.5" fill="#5EC4B6" stroke="#1A1A1A" stroke-width="2"/><text x="88.5" y="60.4" text-anchor="start" font-size="13" fill="#262A3D" font-weight="700">(0, 25)</text><text x="200.1" y="146.7" text-anchor="middle" font-size="14" fill="#1A1A1A" font-weight="700">región factible</text></svg>
