<svg xmlns="http://www.w3.org/2000/svg" viewBox="0 0 520 340" width="520" height="340" font-family="Inter, Helvetica, Arial, sans-serif" role="img"><title>Región factible del ejercicio 2 (2024-ord-a), con sus vértices: (20, 0), (55, 0), (44, 10), (28, 20), (20, 20)</title><defs><marker id="f" viewBox="0 0 10 10" refX="9" refY="5" markerWidth="7" markerHeight="7" orient="auto"><path d="M0,0 L10,5 L0,10 z" fill="#1A1A1A"/></marker></defs><rect x="1.5" y="1.5" width="517" height="337" fill="#EBF8EE" stroke="#1A1A1A" stroke-width="3"/><path d="M202.4,282.3 L422.7,282.3 L353.5,176.4 L252.8,70.4 L202.4,70.4 Z" fill="#FCE678" fill-opacity="0.75" stroke="none"/><line x1="28.0" y1="282.3" x2="492.0" y2="282.3" stroke="#1A1A1A" stroke-width="1.5" marker-end="url(#f)"/><line x1="76.5" y1="312.0" x2="76.5" y2="28.0" stroke="#1A1A1A" stroke-width="1.5" marker-end="url(#f)"/><line x1="28.0" y1="70.4" x2="492.0" y2="70.4" stroke="#F4736C" stroke-width="2" stroke-dasharray="0"/><line x1="442.1" y1="312.0" x2="256.5" y2="28.0" stroke="#F4736C" stroke-width="2" stroke-dasharray="0"/><line x1="482.4" y1="312.0" x2="212.5" y2="28.0" stroke="#F4736C" stroke-width="2" stroke-dasharray="0"/><line x1="202.4" y1="312.0" x2="202.4" y2="28.0" stroke="#F4736C" stroke-width="2" stroke-dasharray="0"/><line x1="28.0" y1="282.3" x2="492.0" y2="282.3" stroke="#F4736C" stroke-width="2" stroke-dasharray="0"/><path d="M202.4,282.3 L422.7,282.3 L353.5,176.4 L252.8,70.4 L202.4,70.4 Z" fill="none" stroke="#262A3D" stroke-width="3"/><circle cx="202.4" cy="282.3" r="5.5" fill="#5EC4B6" stroke="#1A1A1A" stroke-width="2"/><text x="214.4" y="300.3" text-anchor="start" font-size="13" fill="#262A3D" font-weight="700">(20, 0)</text><circle cx="422.7" cy="282.3" r="5.5" fill="#5EC4B6" stroke="#1A1A1A" stroke-width="2"/><text x="410.7" y="300.3" text-anchor="end" font-size="13" fill="#262A3D" font-weight="700">(55, 0)</text><circle cx="353.5" cy="176.4" r="5.5" fill="#5EC4B6" stroke="#1A1A1A" stroke-width="2"/><text x="365.5" y="166.4" text-anchor="start" font-size="13" fill="#262A3D" font-weight="700">(44, 10)</text><circle cx="252.8" cy="70.4" r="5.5" fill="#5EC4B6" stroke="#1A1A1A" stroke-width="2"/><text x="264.8" y="60.4" text-anchor="start" font-size="13" fill="#262A3D" font-weight="700">(28, 20)</text><circle cx="202.4" cy="70.4" r="5.5" fill="#5EC4B6" stroke="#1A1A1A" stroke-width="2"/><text x="214.4" y="60.4" text-anchor="start" font-size="13" fill="#262A3D" font-weight="700">(20, 20)</text><text x="286.8" y="176.4" text-anchor="middle" font-size="14" fill="#1A1A1A" font-weight="700">región factible</text></svg>
