<svg xmlns="http://www.w3.org/2000/svg" viewBox="0 0 520 340" width="520" height="340" font-family="Inter, Helvetica, Arial, sans-serif" role="img"><title>Región factible del ejercicio 2 (2025-ord-b), con sus vértices: (300, 600), (900, 0), (1500, 0), (1500, 900), (800, 1600)</title><defs><marker id="f" viewBox="0 0 10 10" refX="9" refY="5" markerWidth="7" markerHeight="7" orient="auto"><path d="M0,0 L10,5 L0,10 z" fill="#1A1A1A"/></marker></defs><rect x="1.5" y="1.5" width="517" height="337" fill="#EBF8EE" stroke="#1A1A1A" stroke-width="3"/><path d="M145.7,202.9 L284.2,282.3 L422.7,282.3 L422.7,163.1 L261.2,70.4 Z" fill="#FCE678" fill-opacity="0.75" stroke="none"/><line x1="28.0" y1="282.3" x2="492.0" y2="282.3" stroke="#1A1A1A" stroke-width="1.5" marker-end="url(#f)"/><line x1="76.5" y1="312.0" x2="76.5" y2="28.0" stroke="#1A1A1A" stroke-width="1.5" marker-end="url(#f)"/><line x1="50.6" y1="312.0" x2="298.1" y2="28.0" stroke="#F4736C" stroke-width="2" stroke-dasharray="0"/><line x1="422.7" y1="312.0" x2="422.7" y2="28.0" stroke="#F4736C" stroke-width="2" stroke-dasharray="0"/><line x1="28.0" y1="135.3" x2="335.9" y2="312.0" stroke="#F4736C" stroke-width="2" stroke-dasharray="0"/><line x1="492.0" y1="202.9" x2="187.3" y2="28.0" stroke="#F4736C" stroke-width="2" stroke-dasharray="0"/><line x1="28.0" y1="282.3" x2="492.0" y2="282.3" stroke="#F4736C" stroke-width="2" stroke-dasharray="0"/><path d="M145.7,202.9 L284.2,282.3 L422.7,282.3 L422.7,163.1 L261.2,70.4 Z" fill="none" stroke="#262A3D" stroke-width="3"/><circle cx="145.7" cy="202.9" r="5.5" fill="#5EC4B6" stroke="#1A1A1A" stroke-width="2"/><text x="157.7" y="220.9" text-anchor="start" font-size="13" fill="#262A3D" font-weight="700">(300, 600)</text><circle cx="284.2" cy="282.3" r="5.5" fill="#5EC4B6" stroke="#1A1A1A" stroke-width="2"/><text x="296.2" y="300.3" text-anchor="start" font-size="13" fill="#262A3D" font-weight="700">(900, 0)</text><circle cx="422.7" cy="282.3" r="5.5" fill="#5EC4B6" stroke="#1A1A1A" stroke-width="2"/><text x="410.7" y="300.3" text-anchor="end" font-size="13" fill="#262A3D" font-weight="700">(1500, 0)</text><circle cx="422.7" cy="163.1" r="5.5" fill="#5EC4B6" stroke="#1A1A1A" stroke-width="2"/><text x="410.7" y="153.1" text-anchor="end" font-size="13" fill="#262A3D" font-weight="700">(1500, 900)</text><circle cx="261.2" cy="70.4" r="5.5" fill="#5EC4B6" stroke="#1A1A1A" stroke-width="2"/><text x="273.2" y="60.4" text-anchor="start" font-size="13" fill="#262A3D" font-weight="700">(800, 1600)</text><text x="307.3" y="200.2" text-anchor="middle" font-size="14" fill="#1A1A1A" font-weight="700">región factible</text></svg>
